<svg width="1000" height="1000" xmlns="http://www.w3.org/2000/svg">

 <g>
  <title>background</title>
  <rect fill="none" id="canvas_background" height="402" width="582" y="-1" x="-1"/>
 </g>
 <g>
  <title>Layer 1</title>
  <g id="illustration">
   <path id="svg_1" fill="#ffffff" d="m523.3,868l0,46.8c0,48.8 55.4,50.3 55.4,4.5l0,-51.8l-55.4,0.5z"/>
   <rect id="svg_2" fill="#ffffff" height="4.4" width="30.6" y="889.3" x="535.7"/>
   <rect id="svg_3" fill="#ffffff" height="4.4" width="30.6" y="897.7" x="535.7"/>
   <rect id="svg_4" fill="#ffffff" height="4.4" width="30.6" y="906.2" x="535.7"/>
   <path id="svg_5" fill="#ffffff" d="m420,868l0,46.8c0,48.8 55.4,50.3 55.4,4.5l0,-51.8l-55.4,0.5z"/>
   <path id="svg_6" fill="#ffffff" d="m394.4,493.8c0,66.4 0,148.9 0,228.2c0,55.8 0,110 0,155.8c56.6,0 58.8,0 99.7,0c0,-46.8 0,-101.4 0,-154.5c0,-75.9 0,-148.8 0,-191.6c5.9,0 14.5,0 19.9,0c0,41.3 0,115.8 0,191.6c0,54.9 0,110.4 0,154.5c45,0 34.6,0 91.7,0c0,-43 0,-97.5 0,-154.5c0,-79.5 0,-164 0,-229.5l-211.3,0z"/>
   <rect id="svg_7" fill="#ffffff" height="4.4" width="30.6" y="889.3" x="432.4"/>
   <rect id="svg_8" fill="#ffffff" height="4.4" width="30.6" y="897.7" x="432.4"/>
   <rect id="svg_9" fill="#ffffff" height="4.4" width="30.6" y="906.2" x="432.4"/>
   <path id="svg_10" fill="#ffffff" d="m376.9,509c0,-47.3 6,-116.9 31.1,-167.4c8.4,-16.8 18.9,-31.5 32,-42.5c15.7,-13.2 35.3,-21.2 59.4,-21.2c26.1,0 46.9,9.2 63.4,24.3c10.3,9.4 19,21.2 26.2,34.4c27.5,50.4 34.5,122.5 34.5,172.4l-246.6,0l0,0z"/>
   <line id="svg_11" fill="#ffffff" y2="509.6" x2="384" y1="509.6" x1="616.8"/>
   <ellipse id="svg_12" fill="#ffffff" ry="16.3" rx="22" cy="304.3" cx="500.9"/>
   <path id="svg_13" fill="#ffffff" d="m843.8,326.2l17,-6.8c0,0 6.1,5.5 13,11.2s-4.7,18.4 -15.3,10.6c-10.7,-7.8 -14.7,-15 -14.7,-15z"/>
   <path id="svg_14" fill="#ffffff" d="m285.8,267.1l3,56.8c58.9,0.3 93.5,-2.3 119.3,17.7l48.7,-50.2c-54.3,-26.7 -115,-27.7 -171,-24.3z"/>
   <path id="svg_15" fill="#ffffff" d="m545.7,290.4l43.3,53.2c27,-16.2 67.7,-16.3 126.6,-16.7l0,-56.8c-56,-3.4 -99.2,-10.4 -169.9,20.3z"/>
   <path id="svg_16" fill="#ffffff" d="m291,273.7c-47.7,2.7 -123.1,8.9 -160.2,14.2c-37.1,5.3 -40.1,40.1 5.3,39.5s95.2,-3.5 159.7,-12.1l-4.8,-41.6z"/>
   <path id="svg_17" fill="#ffffff" d="m155.6,326.2l-17,-6.8c0,0 -6.1,5.5 -13,11.2c-6.9,5.7 4.7,18.4 15.3,10.6c10.7,-7.8 14.7,-15 14.7,-15z"/>
   <path id="svg_18" fill="#ffffff" d="m709.7,318.3c64.5,8.6 113.3,11.5 158.7,12.1s42.4,-34.2 5.3,-39.5c-37.1,-5.3 -114.5,-11.5 -162.2,-14.2l-1.8,41.6z"/>
   <path id="svg_19" fill="#ffffff" d="m489.5,211.9l20.9,0c0,0 4.3,67.3 5.7,90.8c-2.1,9.7 -9.1,11.3 -15.5,11.1c-8.2,-0.2 -15.9,-4.7 -17.1,-12.5l6,-89.4z"/>
   <path id="svg_20" fill="#ffffff" d="m489.5,211.9l20.9,0c1.9,19 -21.6,89.4 -26.8,89.4l5.9,-89.4z"/>
   <path id="svg_21" fill="#ffffff" d="m499,113c-27,0 -89,8 -56,64c24.8,42.1 88,44 110,3s-4,-67 -54,-67z"/>
   <circle id="svg_22" fill="#ffffff" r="12.1" cy="182.8" cx="560.2"/>
   <circle id="svg_23" fill="#ffffff" r="12.1" cy="182.8" cx="437.6"/>
   <ellipse id="svg_24" fill="#ffffff" ry="57.6" rx="57" cy="177.4" cx="499.8"/>
   <g id="svg_25">
    <path fill="#ffffff" d="m487.5,209.6c0.3,0 0.5,0.3 0.5,0.5s-0.3,0.5 -0.5,0.5c-0.3,0 -0.5,-0.3 -0.5,-0.5s0.3,-0.5 0.5,-0.5z" id="rightMiddleLip_2_"/>
    <circle fill="#ffffff" r="0.5" cy="209.9" cx="499.3" id="upperLipBottomMid_1_"/>
    <circle fill="#ffffff" r="0.5" cy="209.6" cx="496.8" id="rightUpperLipBottom1_1_"/>
    <path fill="#ffffff" d="m511.1,209.6c0.3,0 0.5,0.3 0.5,0.5s-0.3,0.5 -0.5,0.5s-0.5,-0.3 -0.5,-0.5s0.2,-0.5 0.5,-0.5z" id="leftMiddleLip_2_"/>
    <circle fill="#ffffff" r="0.5" cy="209.6" cx="501.8" id="leftUpperLipBottom1_1_"/>
    <path id="svg_26" fill="#ffffff" stroke="#DF7977" stroke-width="2" stroke-miterlimit="10" d="m488,210.1c0,0 7.7,-0.1 11.3,-0.1s11.9,-0.1 11.9,-0.1s-6.9,2.6 -11.9,2.6c-5.1,0 -11.3,-2.4 -11.3,-2.4z"/>
    <circle fill="#ffffff" r="0.5" cy="211.9" cx="499.3" id="lowerLipTopMid_2_"/>
    <circle fill="#ffffff" r="0.5" cy="211.4" cx="496.8" id="rightLowerLipTop0_2_"/>
    <circle fill="#ffffff" r="0.5" cy="211.4" cx="501.8" id="leftLowerLipTop0_2_"/>
   </g>
   <g id="svg_27">
    <ellipse id="svg_28" fill="#ffffff" ry="6.2" rx="7.8" cy="196.5" cx="464.1"/>
    <ellipse id="svg_29" fill="#ffffff" ry="5.8" rx="3.6" cy="180.6" cx="464"/>
    <circle fill="#ffffff" r="0.8" cy="160.2" cx="468.6" id="rightEye0_1_"/>
    <circle fill="#ffffff" r="0.8" cy="156.5" cx="473.8" id="rightEye1_1_"/>
    <circle fill="#ffffff" r="0.8" cy="162.5" cx="473.8" id="rightEye5_1_"/>
    <circle fill="#ffffff" r="0.8" cy="156.5" cx="480.1" id="rightEye2_1_"/>
    <circle fill="#ffffff" r="0.8" cy="160.7" cx="485.3" id="rightEye3_1_"/>
    <circle fill="#ffffff" r="0.8" cy="161.7" cx="480.1" id="rightEye4_1_"/>
   </g>
   <g id="svg_30">
    <ellipse id="svg_31" fill="#ffffff" ry="5.8" rx="3.6" cy="179.6" cx="532.8"/>
    <ellipse id="svg_32" fill="#ffffff" ry="6.2" rx="7.8" cy="196.5" cx="533.2"/>
    <circle fill="#ffffff" r="0.8" cy="160.2" cx="528.2" id="leftEye0_1_"/>
    <circle fill="#ffffff" r="0.8" cy="156.5" cx="523" id="leftEye1_1_"/>
    <circle fill="#ffffff" r="0.8" cy="162.5" cx="523" id="leftEye5_1_"/>
    <circle fill="#ffffff" r="0.8" cy="156.5" cx="516.7" id="leftEye2_1_"/>
    <circle fill="#ffffff" r="0.8" cy="160.7" cx="511.5" id="leftEye3_1_"/>
    <circle fill="#ffffff" r="0.8" cy="161.7" cx="516.7" id="leftEye4_1_"/>
   </g>
   <g id="svg_33">
    <path id="svg_34" fill="#ffffff" d="m518.8,159.9c10.7,-5 14.2,-5 19.2,0.7c-5,-0.7 -5.7,2.8 -19.2,-0.7z"/>
    <circle fill="#ffffff" r="0.8" cy="148.7" cx="530.1" id="leftBrow1_1_"/>
    <circle fill="#ffffff" r="0.8" cy="150.8" cx="506.5" id="leftBrow4_1_"/>
    <circle fill="#ffffff" r="0.8" cy="147.6" cx="516.5" id="leftBrow3_1_"/>
    <circle fill="#ffffff" r="0.8" cy="151.6" cx="534.1" id="leftBrow0_1_"/>
    <circle fill="#ffffff" r="0.8" cy="147.2" cx="523.8" id="leftBrow2_1_"/>
   </g>
   <g id="svg_35">
    <path id="svg_36" fill="#ffffff" d="m478,159.9c-10.7,-5 -14.2,-5 -19.2,0.7c5,-0.7 5.7,2.8 19.2,-0.7z"/>
    <circle fill="#ffffff" r="0.8" cy="148.3" cx="466.4" id="rightBrow1_1_"/>
    <circle fill="#ffffff" r="0.8" cy="151.3" cx="489.7" id="rightBrow4_1_"/>
    <circle fill="#ffffff" r="0.8" cy="147.3" cx="479.9" id="rightBrow3_1_"/>
    <circle fill="#ffffff" r="0.8" cy="152" cx="462.4" id="rightBrow0_1_"/>
    <circle fill="#ffffff" r="0.8" cy="147.3" cx="472.6" id="rightBrow2_1_"/>
   </g>
   <path id="svg_37" fill="#ffffff" d="m456,138c1.9,7.7 62.3,20.7 82,-3c10,-12 9,-22 4,-25c-4.4,-2.6 -9,-6 -22,6c-1,-9 1,-15 -16,-17c-27.8,-3.3 -52.4,21 -48,39z"/>
   <g id="svg_38">
    <path id="svg_39" fill="#ffffff" stroke="#2C323A" stroke-width="2" stroke-miterlimit="10" d="m496.4,185.8c-1.2,0 -4.6,1.6 -5.8,5.2c-0.2,1.2 0.6,5.8 6,4.1c-0.1,-1 -4.7,-1.1 -4.5,-3.7c0.3,-1.8 2,-1.8 4.3,-5.6z"/>
    <circle fill="#ffffff" r="0.8" cy="161.2" cx="497.6" id="nose1_1_"/>
    <circle fill="#ffffff" r="0.8" cy="155.4" cx="497.6" id="nose0_1_"/>
    <circle fill="#ffffff" r="0.8" cy="173.8" cx="497.6" id="nose3_1_"/>
    <circle fill="#ffffff" r="0.8" cy="178.3" cx="486.9" id="rightNose0_1_"/>
    <circle fill="#ffffff" r="0.8" cy="178.3" cx="492.1" id="rightNose1_1_"/>
    <circle fill="#ffffff" r="0.8" cy="166.7" cx="497.6" id="nose2_1_"/>
    <circle fill="#ffffff" r="0.8" cy="179.1" cx="497.6" id="nose4_1_"/>
    <circle fill="#ffffff" r="0.8" cy="178.3" cx="508" id="leftNose0_1_"/>
    <circle fill="#ffffff" r="0.8" cy="178.3" cx="503.2" id="leftNose1_1_"/>
   </g>
  </g>
  <g id="skeleton_1_">
   <circle r="8.2" cy="294.3" cx="392.8" id="rightShoulder"/>
   <circle r="8.2" cy="294.4" cx="289.3" id="rightElbow"/>
   <ellipse ry="8.2" rx="8.2" cy="300.8" cx="125.9" transform="matrix(0.9951,-0.09853767,0.09853767,0.9951,-29.0274,13.8698) " id="rightWrist"/>
   <circle r="8.2" cy="510.1" cx="443.1" id="rightHip"/>
   <circle r="8.2" cy="670.3" cx="449.5" id="rightKnee"/>
   <circle r="8.2" cy="878.3" cx="449.5" id="rightAnkle"/>
   <circle r="8.2" cy="294.3" cx="605.7" id="leftShoulder"/>
   <circle r="8.2" cy="294" cx="710.1" id="leftElbow"/>
   <circle r="8.2" cy="300.3" cx="873.5" id="leftWrist"/>
   <circle r="8.2" cy="509.3" cx="559.5" id="leftHip"/>
   <circle r="8.2" cy="670.3" cx="559.5" id="leftKnee"/>
   <circle r="8.2" cy="878.3" cx="559.5" id="leftAnkle"/>
   <polygon id="svg_40" fill="none" stroke="#000000" stroke-miterlimit="10" points="392.7,294.6 443,510.4 559.4,509.6 605.6,294.6  "/>
   <polyline id="svg_41" fill="none" stroke="#000000" stroke-miterlimit="10" points="391.7,294.6 289,294.6 125.7,300.9  "/>
   <polyline id="svg_42" fill="none" stroke="#000000" stroke-miterlimit="10" points="607.1,294.2 710.3,294.2 873.6,300.6  "/>
   <polyline id="svg_43" fill="none" stroke="#000000" stroke-miterlimit="10" points="443,510.4 449.4,670.6 449.4,878.6  "/>
   <polyline id="svg_44" fill="none" stroke="#000000" stroke-miterlimit="10" points="559.4,509.6 559.4,670.6 559.4,878.6  "/>
   <circle r="0.8" cy="160.2" cx="468.6" id="rightEye0"/>
   <circle r="0.8" cy="148.3" cx="466.4" id="rightBrow1"/>
   <circle r="0.8" cy="151.3" cx="489.7" id="rightBrow4"/>
   <circle r="0.8" cy="161.2" cx="497.6" id="nose1"/>
   <circle r="0.8" cy="147.3" cx="479.9" id="rightBrow3"/>
   <circle r="0.8" cy="156.5" cx="473.8" id="rightEye1"/>
   <circle r="0.8" cy="152" cx="462.4" id="rightBrow0"/>
   <circle r="0.8" cy="147.3" cx="472.6" id="rightBrow2"/>
   <circle r="0.8" cy="162.5" cx="473.8" id="rightEye5"/>
   <circle r="0.8" cy="156.5" cx="480.1" id="rightEye2"/>
   <circle r="0.8" cy="160.7" cx="485.3" id="rightEye3"/>
   <circle r="0.8" cy="155.4" cx="497.6" id="nose0"/>
   <circle r="0.8" cy="173.8" cx="497.6" id="nose3"/>
   <circle r="0.8" cy="178.3" cx="486.9" id="rightNose0"/>
   <circle r="0.8" cy="200.4" cx="480.9" id="rightMouthCorner"/>
   <circle r="0.8" cy="178.3" cx="492.1" id="rightNose1"/>
   <circle r="0.8" cy="197" cx="487.8" id="rightUpperLipTop0"/>
   <circle r="0.8" cy="166.7" cx="497.6" id="nose2"/>
   <circle r="0.8" cy="179.1" cx="497.6" id="nose4"/>
   <circle r="0.8" cy="196.8" cx="498.4" id="upperLipTopMid"/>
   <circle r="0.8" cy="195.9" cx="494.3" id="rightUpperLipTop1"/>
   <path d="m484.5,199.9c0.4,0 0.8,0.4 0.8,0.8c0,0.4 -0.4,0.8 -0.8,0.8s-0.8,-0.4 -0.8,-0.8s0.4,-0.8 0.8,-0.8z" id="rightMiddleLip"/>
   <circle r="0.8" cy="210" cx="498.4" id="lowerLipBottomMid"/>
   <circle r="0.8" cy="200.4" cx="498.4" id="upperLipBottomMid"/>
   <circle r="0.8" cy="203.5" cx="498.4" id="lowerLipTopMid"/>
   <circle r="0.8" cy="199.9" cx="494.5" id="rightUpperLipBottom1"/>
   <circle r="0.8" cy="202.8" cx="494.5" id="rightLowerLipTop0"/>
   <circle r="0.8" cy="209.5" cx="494.3" id="rightLowerLipBottom1"/>
   <circle r="0.8" cy="206.7" cx="487.3" id="rightLowerLipBottom0"/>
   <circle r="0.8" cy="161.7" cx="480.1" id="rightEye4"/>
   <circle r="0.8" cy="235.8" cx="498.4" id="jawMid"/>
   <circle r="0.8" cy="232.6" cx="483.4" id="rightJaw7"/>
   <circle r="0.8" cy="225.9" cx="473.4" id="rightJaw6"/>
   <circle r="0.8" cy="213.4" cx="461.8" id="rightJaw5"/>
   <circle r="0.8" cy="193.4" cx="455" id="rightJaw4"/>
   <circle r="0.8" cy="171.7" cx="454.2" id="rightJaw3"/>
   <circle r="0.8" cy="162.2" cx="454.2" id="rightJaw2"/>
   <circle r="0.8" cy="150.5" cx="455" id="rightJaw1"/>
   <circle r="0.8" cy="141.2" cx="457.5" id="rightJaw0"/>
   <circle r="0.8" cy="115.1" cx="498.6" id="topMid"/>
   <circle r="0.8" cy="117.6" cx="518.3" id="leftTop0"/>
   <circle r="0.8" cy="127.1" cx="530.9" id="leftTop1"/>
   <circle r="0.8" cy="160.2" cx="528.2" id="leftEye0"/>
   <circle r="0.8" cy="148.7" cx="530.1" id="leftBrow1"/>
   <circle r="0.8" cy="150.8" cx="506.5" id="leftBrow4"/>
   <circle r="0.8" cy="147.6" cx="516.5" id="leftBrow3"/>
   <circle r="0.8" cy="156.5" cx="523" id="leftEye1"/>
   <circle r="0.8" cy="151.6" cx="534.1" id="leftBrow0"/>
   <circle r="0.8" cy="147.2" cx="523.8" id="leftBrow2"/>
   <circle r="0.8" cy="162.5" cx="523" id="leftEye5"/>
   <circle r="0.8" cy="156.5" cx="516.7" id="leftEye2"/>
   <circle r="0.8" cy="160.7" cx="511.5" id="leftEye3"/>
   <circle r="0.8" cy="178.3" cx="508" id="leftNose0"/>
   <circle r="0.8" cy="200.4" cx="515.9" id="leftMouthCorner"/>
   <circle r="0.8" cy="178.3" cx="503.2" id="leftNose1"/>
   <circle r="0.8" cy="197" cx="509" id="leftUpperLipTop0"/>
   <circle r="0.8" cy="195.9" cx="502.6" id="leftUpperLipTop1"/>
   <path d="m512.3,199.9c0.4,0 0.8,0.4 0.8,0.8c0,0.4 -0.4,0.8 -0.8,0.8c-0.4,0 -0.8,-0.4 -0.8,-0.8s0.4,-0.8 0.8,-0.8z" id="leftMiddleLip"/>
   <circle r="0.8" cy="199.9" cx="502.4" id="leftUpperLipBottom1"/>
   <circle r="0.8" cy="202.8" cx="502.4" id="leftLowerLipTop0"/>
   <circle r="0.8" cy="209.5" cx="502.6" id="leftLowerLipBottom1"/>
   <circle r="0.8" cy="206.7" cx="509.5" id="leftLowerLipBottom0"/>
   <circle r="0.8" cy="161.7" cx="516.7" id="leftEye4"/>
   <circle r="0.8" cy="233" cx="513.2" id="leftJaw7"/>
   <circle r="0.8" cy="226.3" cx="523.2" id="leftJaw6"/>
   <circle r="0.8" cy="213.7" cx="534.8" id="leftJaw5"/>
   <circle r="0.8" cy="193.7" cx="541.6" id="leftJaw4"/>
   <circle r="0.8" cy="172.1" cx="542.4" id="leftJaw3"/>
   <circle r="0.8" cy="162.5" cx="542.4" id="leftJaw2"/>
   <circle r="0.8" cy="150.8" cx="541.6" id="leftJaw1"/>
   <circle r="0.8" cy="141.6" cx="539.1" id="leftJaw0"/>
   <polyline id="svg_45" fill="none" stroke="#000000" stroke-miterlimit="10" points="498.4,115.1 478.6,117.6 466.1,127.1 457.5,141.2    455,150.5 454.2,162.2 454.2,171.7 455,193.4 461.8,213.4 473.4,225.9 483.4,232.6 498.4,235.8 513.2,233 523.2,226.3 534.8,213.7    541.6,193.7 542.4,172.1 542.4,162.5 541.6,150.8 539.1,141.6 530.9,127.1 518.3,117.6 498.4,115.1  "/>
   <polyline id="svg_46" fill="none" stroke="#000000" stroke-miterlimit="10" points="462.4,152 466.4,148.3 472.6,147.3 479.9,147.3    489.7,151.3  "/>
   <polygon id="svg_47" fill="none" stroke="#000000" stroke-miterlimit="10" points="468.6,160.2 473.8,156.5 480.1,156.5 485.3,160.7    480.1,161.7 473.8,162.5  "/>
   <polyline id="svg_48" fill="none" stroke="#000000" stroke-miterlimit="10" points="486.9,178.3 492.1,178.3 497.6,179.1 497.6,173.8    497.6,166.7 497.6,161.2 497.6,155.4  "/>
   <polyline id="svg_49" fill="none" stroke="#000000" stroke-miterlimit="10" points="533.9,151.6 529.9,148.7 523.6,147.2 516.3,147.6    506.3,150.8  "/>
   <polygon id="svg_50" fill="none" stroke="#000000" stroke-miterlimit="10" points="528,160.2 522.7,156.5 516.4,156.5 511.3,160.7    516.4,161.7 522.7,162.5  "/>
   <polyline id="svg_51" fill="none" stroke="#000000" stroke-miterlimit="10" points="508,178.3 503,178.3 497.6,179.1  "/>
   <polygon id="svg_52" fill="none" stroke="#000000" stroke-miterlimit="10" points="480.9,200.4 487.8,197 494.3,195.9 498.4,196.8    502.6,195.9 509,197 515.9,200.4 509.5,206.7 502.4,209.5 498.4,210 494.3,209.5 487.3,206.7  "/>
   <polyline id="svg_53" fill="none" stroke="#000000" stroke-miterlimit="10" points="480.9,200.4 484.5,200.7 494.5,199.9 498.4,200.4    502.4,199.9 512.3,200.7 515.9,200.4  "/>
   <polyline id="svg_54" fill="none" stroke="#000000" stroke-miterlimit="10" points="480.9,200.4 484.5,200.7 494.5,202.8 498.4,203.6    502.4,202.8 512.3,200.7 515.9,200.4  "/>
   <circle r="0.8" cy="117.6" cx="478.7" id="rightTop0"/>
   <circle r="0.8" cy="127.1" cx="466.1" id="rightTop1"/>
  </g>
  <path id="svg_63" d="m448.25246,112.94349c35.00001,-26.07945 70.00001,26.07945 105,0l0,46.94301c-35,26.07946 -70,-26.07945 -105,0l0,-46.94301z" stroke-opacity="null" stroke-width="1.5" stroke="#000" fill="#A0D58A"/>
  <ellipse ry="4" rx="6.5" id="svg_64" cy="172" cx="477" stroke-opacity="null" stroke-width="1.5" stroke="#000" fill="#ffffff"/>
  <ellipse id="svg_65" cy="187" cx="531.5" stroke-opacity="null" stroke-width="1.5" stroke="#000" fill="#ffffff"/>
  <ellipse ry="4.5" rx="7" id="svg_66" cy="175.5" cx="523.5" stroke-opacity="null" stroke-width="1.5" stroke="#000" fill="#ffffff"/>
  <ellipse id="svg_67" cy="199" cx="537.5" stroke-opacity="null" stroke-width="1.5" stroke="#000" fill="#ffffff"/>
  <ellipse id="svg_68" cy="173" cx="523.5" stroke-opacity="null" stroke-width="1.5" stroke="#000" fill="#ffffff"/>
  <ellipse id="svg_69" cy="194" cx="531.5" stroke-opacity="null" stroke-width="1.5" stroke="#000" fill="#ffffff"/>
  <ellipse id="svg_70" cy="177" cx="524.5" stroke-opacity="null" stroke-width="1.5" stroke="#000" fill="#ffffff"/>
  <ellipse id="svg_71" cy="194" cx="506.5" stroke-opacity="null" stroke-width="1.5" stroke="#000" fill="#ffffff"/>
  <path d="m476.5,175c0,0 0.70709,-1.29289 0,-2c-0.70709,-0.70711 -1,-1 -1,-2c0,-1 0,-2 0,-1c0,1 0,2 0,3c0,1 0,2 0,1c0,-1 1,-3 0,-3c-1,0 0,2 0,3c0,1 0,2 0,1c0,-1 0,-2 0,-3l1,-1" id="svg_72" stroke-opacity="null" stroke-width="1.5" stroke="#000" fill="none"/>
  <polyline stroke-linecap="round" id="svg_73" points="552.5,181 552.5,181 552.5,181 " stroke-opacity="null" stroke-width="1.5" stroke="#000" fill="none"/>
  <path d="m476.5,176c0,0 0,-1 0,-2c0,-1 0,-2 0,-3c0,-1 0,-2 0,-3c0,-1 0,0 0,1c0,1 -1,4 0,4c2,0 1,-4 0,-4c-1,0 -0.70709,2.29289 0,3c0.70709,0.70711 1.70709,-1.29289 1,-2c-0.70709,-0.70711 -1,-1 -1,-2c0,-1 1,-1 1,0c0,1 1,1 1,2c0,1 -1,3 0,3c1,0 0,-2 -1,-2l-1,0l0,1l0,1" id="svg_74" stroke-opacity="null" stroke-width="1.5" stroke="#000" fill="none"/>
  <path d="m521.5,171c0,0 0,1 0,2c0,1 0,2 1,2c1,0 2,0 3,0c1,0 0,0 -1,0c-1,0 -2,0 -2,1c0,1 0,2 1,2c1,0 0,-2 0,-3c0,-2 -0.29291,-3.70711 -1,-3c-0.70709,0.70711 0.4588,1.69344 1,3c0.38269,0.92387 0.29291,1.29289 1,2c0.70709,0.70711 0,0 0,-1c0,-1 1,-3 0,-3c-1,0 0,2 0,3c0,2 0,1 0,0c0,-1 0,-2 0,-3c0,-1 -1,-1 -2,-1c-1,0 -3,-1 -3,0c0,1 2,0 3,0c1,0 2,0 3,0c1,0 1,1 1,2c0,1 -0.29291,1.29289 -1,2c-0.70709,0.70711 -0.29291,1.29289 -1,2c-0.70709,0.70711 -1,-1 -1,-2c0,-1 1,-3 0,-3c-1,0 0.70709,2.29289 0,3c-0.70709,0.70711 -2,0 -2,-1c0,-1 -0.29291,-1.29289 -1,-2c-0.70709,-0.70711 0,-2 0,-1c0,1 -0.70709,2.29289 0,3c0.70709,0.70711 1,1 2,1l0,1" id="svg_75" stroke-opacity="null" stroke-width="1.5" stroke="#000" fill="none"/>
 </g>
</svg>
