<svg width="1200" height="1200" xmlns="http://www.w3.org/2000/svg">

 <g>
  <title>background</title>
  <rect fill="none" id="canvas_background" height="402" width="582" y="-1" x="-1"/>
 </g>
 <g>
  <title>Layer 1</title>
  <path stroke="#000000" transform="rotate(178.726806640625 626.875,452.7343139648438) " id="svg_61" d="m524.430556,560.233675l38.416664,-214.998745l128.055554,0l38.41665,214.998745l-204.888868,0z" stroke-opacity="null" stroke-width="null" fill="#9A8AAB"/>
  <path stroke="#000000" id="svg_49" d="m665.266647,226.695449c0,0 6.741329,-28.972345 0,-38.786623c-6.749269,-9.814279 -9.441037,-16.351628 -24.281489,-21.031776s-9.433096,-3.74742 -20.223987,-3.268675c-10.790891,0.470491 -19.78727,6.53735 -19.78727,9.806024c0,0 -6.741329,0.470491 -9.433096,3.276929c-2.699708,2.806438 -7.193927,15.881137 -7.193927,19.158066s2.24711,25.241433 4.494219,29.913327l-2.675887,0.932728c-2.24711,27.098635 8.988439,30.375564 8.988439,30.375564c4.041621,25.241433 8.091183,14.494427 8.091183,21.031776s-4.049562,4.209657 -4.049562,4.209657s-3.589023,10.276515 -12.577462,14.015681c-8.988439,3.730912 -58.88539,23.821706 -62.942892,28.031363c-4.057502,4.217911 -3.596964,23.838214 -3.596964,23.838214l213.967718,0c0,0 0.468479,-19.620303 -3.589023,-23.838214c-4.065442,-4.217911 -53.962393,-24.300451 -62.950832,-28.031363c-8.988439,-3.739166 -12.577462,-14.015681 -12.577462,-14.015681s-4.049562,2.327693 -4.049562,-4.209657s4.049562,4.209657 8.099123,-21.031776c0,0 11.227608,-3.276929 8.988439,-30.375564l-2.699708,0z" stroke-opacity="null" stroke-width="null" fill="#9A8AAB"/>
  <ellipse stroke="#000" ry="57.5" rx="44" id="svg_16" cy="229.500003" cx="625" stroke-width="1.5" fill="#fff"/>
  <g stroke="null" id="skeleton_1_">
   <polygon stroke="#000000" id="svg_1" fill="none" stroke-miterlimit="10" points="518.8,349.5 569.1,565.3 685.5,564.5 731.7,349.5  "/>
   <polyline stroke="#000000" id="svg_2" fill="none" stroke-miterlimit="10" points="517.8,349.5 415.1,349.5 251.8,355.8  "/>
   <polyline stroke="#000000" id="svg_3" fill="none" stroke-miterlimit="10" points="733.2,349.1 836.4,349.1 999.7,355.5  "/>
   <polyline stroke="#000000" id="svg_4" fill="none" stroke-miterlimit="10" points="569.1,565.3 575.5,725.5 575.5,933.5  "/>
   <polyline stroke="#000000" id="svg_5" fill="none" stroke-miterlimit="10" points="685.5,564.5 685.5,725.5 685.5,933.5  "/>
   <polyline stroke="#000000" id="svg_6" fill="none" stroke-miterlimit="10" points="624.5,170 604.7,172.5 592.2,182 583.6,196.1    581.1,205.4 580.3,217.1 580.3,226.6 581.1,248.3 587.9,268.3 599.5,280.8 609.5,287.5 624.5,290.7 639.3,287.9 649.3,281.2    660.9,268.6 667.7,248.6 668.5,227 668.5,217.4 667.7,205.7 665.2,196.5 657,182 644.4,172.5 624.5,170  "/>
   <polyline stroke="#000000" id="svg_7" fill="none" stroke-miterlimit="10" points="588.5,206.9 592.5,203.2 598.7,202.2 606,202.2    615.8,206.2  "/>
   <polygon stroke="#000000" id="svg_8" fill="none" stroke-miterlimit="10" points="594.7,215.1 599.9,211.4 606.2,211.4 611.4,215.6    606.2,216.6 599.9,217.4  "/>
   <polyline stroke="#000000" id="svg_9" fill="none" stroke-miterlimit="10" points="613,233.2 618.2,233.2 623.7,234 623.7,228.7    623.7,221.6 623.7,216.1 623.7,210.3  "/>
   <polyline stroke="#000000" id="svg_10" fill="none" stroke-miterlimit="10" points="660,206.5 656,203.6 649.7,202.1 642.4,202.5    632.4,205.7  "/>
   <polygon stroke="#000000" id="svg_11" fill="none" stroke-miterlimit="10" points="654.1,215.1 648.8,211.4 642.5,211.4 637.4,215.6    642.5,216.6 648.8,217.4  "/>
   <polyline stroke="#000000" id="svg_12" fill="none" stroke-miterlimit="10" points="634.1,233.2 629.1,233.2 623.7,234  "/>
   <polygon stroke="#000000" id="svg_13" fill="none" stroke-miterlimit="10" points="607,255.3 613.9,251.9 620.4,250.8 624.5,251.7    628.7,250.8 635.1,251.9 642,255.3 635.6,261.6 628.5,264.4 624.5,264.9 620.4,264.4 613.4,261.6  "/>
   <polyline stroke="#000000" id="svg_14" fill="none" stroke-miterlimit="10" points="607,255.3 610.6,255.6 620.6,254.8 624.5,255.3    628.5,254.8 638.4,255.6 642,255.3  "/>
   <polyline stroke="#000000" id="svg_15" fill="none" stroke-miterlimit="10" points="607,255.3 610.6,255.6 620.6,257.7 624.5,258.5    628.5,257.7 638.4,255.6 642,255.3  "/>
   <circle stroke="null" r="8.2" cy="349.2" cx="518.9" id="rightShoulder"/>
   <circle stroke="null" r="8.2" cy="349.3" cx="415.4" id="rightElbow"/>
   <circle stroke="null" r="8.2" cy="355.7" cx="252" id="rightWrist"/>
   <circle stroke="null" r="8.2" cy="565" cx="569.2" id="rightHip"/>
   <circle stroke="null" r="8.2" cy="725.2" cx="575.6" id="rightKnee"/>
   <circle stroke="null" r="8.2" cy="933.2" cx="575.6" id="rightAnkle"/>
   <circle stroke="null" r="8.2" cy="348.9" cx="836.2" id="leftElbow"/>
   <circle stroke="null" r="8.2" cy="355.2" cx="999.6" id="leftWrist"/>
   <circle stroke="null" r="8.2" cy="564.2" cx="685.6" id="leftHip"/>
   <circle stroke="null" r="8.2" cy="725.2" cx="685.6" id="leftKnee"/>
   <circle stroke="null" r="8.2" cy="933.2" cx="685.6" id="leftAnkle"/>
   <circle stroke="null" r="0.8" cy="215.1" cx="594.7" id="rightEye0"/>
   <circle stroke="null" r="0.8" cy="203.2" cx="592.5" id="rightBrow1"/>
   <circle stroke="null" r="0.8" cy="206.2" cx="615.8" id="rightBrow4"/>
   <circle stroke="null" r="0.8" cy="216.1" cx="623.7" id="nose1"/>
   <circle stroke="null" r="0.8" cy="202.2" cx="606" id="rightBrow3"/>
   <circle stroke="null" r="0.8" cy="211.4" cx="599.9" id="rightEye1"/>
   <circle stroke="null" r="0.8" cy="206.9" cx="588.5" id="rightBrow0"/>
   <circle stroke="null" r="0.8" cy="202.2" cx="598.7" id="rightBrow2"/>
   <circle stroke="null" r="0.8" cy="217.4" cx="599.9" id="rightEye5"/>
   <circle stroke="null" r="0.8" cy="211.4" cx="606.2" id="rightEye2"/>
   <circle stroke="null" r="0.8" cy="215.6" cx="611.4" id="rightEye3"/>
   <circle stroke="null" r="0.8" cy="210.3" cx="623.7" id="nose0"/>
   <circle stroke="null" r="0.8" cy="228.7" cx="623.7" id="nose3"/>
   <circle stroke="null" r="0.8" cy="233.2" cx="613" id="rightNose0"/>
   <circle stroke="null" r="0.8" cy="255.3" cx="607" id="rightMouthCorner"/>
   <circle stroke="null" r="0.8" cy="233.2" cx="618.2" id="rightNose1"/>
   <circle stroke="null" r="0.8" cy="251.9" cx="613.9" id="rightUpperLipTop0"/>
   <circle stroke="null" r="0.8" cy="221.6" cx="623.7" id="nose2"/>
   <circle stroke="null" r="0.8" cy="234" cx="623.7" id="nose4"/>
   <circle stroke="null" r="0.8" cy="251.7" cx="624.5" id="upperLipTopMid"/>
   <circle stroke="null" r="0.8" cy="250.8" cx="620.4" id="rightUpperLipTop1"/>
   <path stroke="null" d="m610.6,254.8c0.4,0 0.8,0.4 0.8,0.8c0,0.4 -0.4,0.8 -0.8,0.8s-0.8,-0.4 -0.8,-0.8s0.4,-0.8 0.8,-0.8z" id="rightMiddleLip"/>
   <circle stroke="null" r="0.8" cy="264.9" cx="624.5" id="lowerLipBottomMid"/>
   <circle stroke="null" r="0.8" cy="255.3" cx="624.5" id="upperLipBottomMid"/>
   <circle stroke="null" r="0.8" cy="258.4" cx="624.5" id="lowerLipTopMid"/>
   <circle stroke="null" r="0.8" cy="254.8" cx="620.6" id="rightUpperLipBottom1"/>
   <circle stroke="null" r="0.8" cy="257.7" cx="620.6" id="rightLowerLipTop0"/>
   <circle stroke="null" r="0.8" cy="264.4" cx="620.4" id="rightLowerLipBottom1"/>
   <circle stroke="null" r="0.8" cy="261.6" cx="613.4" id="rightLowerLipBottom0"/>
   <circle stroke="null" r="0.8" cy="216.6" cx="606.2" id="rightEye4"/>
   <circle stroke="null" r="0.8" cy="290.7" cx="624.5" id="jawMid"/>
   <circle stroke="null" r="0.8" cy="287.5" cx="609.5" id="rightJaw7"/>
   <circle stroke="null" r="0.8" cy="280.8" cx="599.5" id="rightJaw6"/>
   <circle stroke="null" r="0.8" cy="268.3" cx="587.9" id="rightJaw5"/>
   <circle stroke="null" r="0.8" cy="248.3" cx="581.1" id="rightJaw4"/>
   <circle stroke="null" r="0.8" cy="226.6" cx="580.3" id="rightJaw3"/>
   <circle stroke="null" r="0.8" cy="217.1" cx="580.3" id="rightJaw2"/>
   <circle stroke="null" r="0.8" cy="205.4" cx="581.1" id="rightJaw1"/>
   <circle stroke="null" r="0.8" cy="196.1" cx="583.6" id="rightJaw0"/>
   <circle stroke="null" r="0.8" cy="170" cx="624.7" id="topMid"/>
   <circle stroke="null" r="0.8" cy="172.5" cx="644.4" id="leftTop0"/>
   <circle stroke="null" r="0.8" cy="182" cx="657" id="leftTop1"/>
   <circle stroke="null" r="0.8" cy="215.1" cx="654.3" id="leftEye0"/>
   <circle stroke="null" r="0.8" cy="203.6" cx="656.2" id="leftBrow1"/>
   <circle stroke="null" r="0.8" cy="205.7" cx="632.6" id="leftBrow4"/>
   <circle stroke="null" r="0.8" cy="202.5" cx="642.6" id="leftBrow3"/>
   <circle stroke="null" r="0.8" cy="211.4" cx="649.1" id="leftEye1"/>
   <circle stroke="null" r="0.8" cy="206.5" cx="660.2" id="leftBrow0"/>
   <circle stroke="null" r="0.8" cy="202.1" cx="649.9" id="leftBrow2"/>
   <circle stroke="null" r="0.8" cy="217.4" cx="649.1" id="leftEye5"/>
   <circle stroke="null" r="0.8" cy="211.4" cx="642.8" id="leftEye2"/>
   <circle stroke="null" r="0.8" cy="215.6" cx="637.6" id="leftEye3"/>
   <circle stroke="null" r="0.8" cy="233.2" cx="634.1" id="leftNose0"/>
   <circle stroke="null" r="0.8" cy="255.3" cx="642" id="leftMouthCorner"/>
   <circle stroke="null" r="0.8" cy="233.2" cx="629.3" id="leftNose1"/>
   <circle stroke="null" r="0.8" cy="251.9" cx="635.1" id="leftUpperLipTop0"/>
   <circle stroke="null" r="0.8" cy="250.8" cx="628.7" id="leftUpperLipTop1"/>
   <path stroke="null" d="m638.4,254.8c0.4,0 0.8,0.4 0.8,0.8c0,0.4 -0.4,0.8 -0.8,0.8s-0.8,-0.4 -0.8,-0.8s0.4,-0.8 0.8,-0.8z" id="leftMiddleLip"/>
   <circle stroke="null" r="0.8" cy="254.8" cx="628.5" id="leftUpperLipBottom1"/>
   <circle stroke="null" r="0.8" cy="257.7" cx="628.5" id="leftLowerLipTop0"/>
   <circle stroke="null" r="0.8" cy="264.4" cx="628.7" id="leftLowerLipBottom1"/>
   <circle stroke="null" r="0.8" cy="261.6" cx="635.6" id="leftLowerLipBottom0"/>
   <circle stroke="null" r="0.8" cy="216.6" cx="642.8" id="leftEye4"/>
   <circle stroke="null" r="0.8" cy="287.9" cx="639.3" id="leftJaw7"/>
   <circle stroke="null" r="0.8" cy="281.2" cx="649.3" id="leftJaw6"/>
   <circle stroke="null" r="0.8" cy="268.6" cx="660.9" id="leftJaw5"/>
   <circle stroke="null" r="0.8" cy="248.6" cx="667.7" id="leftJaw4"/>
   <circle stroke="null" r="0.8" cy="227" cx="668.5" id="leftJaw3"/>
   <circle stroke="null" r="0.8" cy="217.4" cx="668.5" id="leftJaw2"/>
   <circle stroke="null" r="0.8" cy="205.7" cx="667.7" id="leftJaw1"/>
   <circle stroke="null" r="0.8" cy="196.5" cx="665.2" id="leftJaw0"/>
   <circle stroke="null" r="0.8" cy="172.5" cx="604.8" id="rightTop0"/>
   <circle stroke="null" r="0.8" cy="182" cx="592.2" id="rightTop1"/>
   <circle stroke="null" r="8.2" cy="349.2" cx="731.8" id="leftShoulder"/>
  </g>
  <path d="m605,253c0,0 0,-1 -1,-2c-1,-1 -1.292908,-1.292892 -2,-2c-0.707092,-0.707108 -1.076111,-0.61731 -2,-1c-1.30658,-0.541199 -1.292908,-1.292892 -2,-2c-0.707092,-0.707108 -0.292908,-1.292892 -1,-2c-0.707092,-0.707108 -1,-2 -2,-2l0,-1l0,-1l0,1" id="svg_18" fill-opacity="null" stroke-opacity="null" stroke-width="1.5" stroke="#000" fill="none"/>
  <path d="m643,253c0,0 0.458801,-0.693436 1,-2c0.38269,-0.923874 1.458801,-0.693436 2,-2c0.38269,-0.923874 0.292908,-2.292892 1,-3c0.707092,-0.707108 1.292908,-0.292892 2,-1c0.707092,-0.707108 -0.707092,-2.292892 0,-3c0.707092,-0.707108 2,0 2,-1c0,-1 1,-2 1,-3l0,-1l0,1" id="svg_20" fill-opacity="null" stroke-opacity="null" stroke-width="1.5" stroke="#000" fill="none"/>
  <path d="m595,239c0,0 1,1 1,2c0,1 0.292908,1.292892 1,2c0.707092,0.707108 0.458801,1.693436 1,3c0.38269,0.923874 0,2 1,2c1,0 1.292908,0.292892 2,1c0.707092,0.707108 1,1 1,2c0,1 0.292908,1.292892 1,2c0.707092,0.707108 -0.458801,0.306564 -1,-1c-0.38269,-0.923874 -0.61731,-1.076126 -1,-2c-1.082397,-2.613129 -3,-3 -4,-4c-1,-1 -2,-2 -2,-3c0,-1 -1,-1 -1,-2c0,-1 -0.292908,-2.707108 -1,-2c-0.707092,0.707108 0.292908,1.292892 1,2c0.707092,0.707108 0.292908,1.292892 1,2c0.707092,0.707108 1.292908,1.292892 2,2c0.707092,0.707108 1.292908,0.292892 2,1c0.707092,0.707108 1.292908,1.292892 2,2c0.707092,0.707108 0.292908,1.292892 1,2c0.707092,0.707108 1.292908,0.292892 2,1c0.707092,0.707108 1.707092,1.292892 1,2c-0.707092,0.707108 -2.458801,-0.693436 -3,-2c-0.38269,-0.923874 -1.458801,-1.693436 -2,-3c-0.38269,-0.923874 -1,-1 -1,-2c0,-1 -0.458801,-1.693436 -1,-3c-0.38269,-0.923874 -0.076111,-1.61731 -1,-2c-1.30658,-0.541199 -0.292908,-2.292892 -1,-3c-0.707092,-0.707108 -1,-1 -2,-1l-1,0l0,-1" id="svg_21" fill-opacity="null" stroke-opacity="null" stroke-width="1.5" stroke="#000" fill="none"/>
  <path d="m642,251c0,0 1,0 2,0c1,0 1.458801,-0.693436 2,-2c0.38269,-0.923874 0.292908,-1.292892 1,-2c0.707092,-0.707108 1.69342,-1.458801 3,-2c0.923889,-0.38269 1.458801,-0.693436 2,-2c0.38269,-0.923874 0,-2 0,-3c0,-1 1.292908,-0.292892 2,-1c0.707092,-0.707108 1.38269,-0.923874 1,0c-0.541199,1.306564 -2,1 -2,2c0,1 -0.292908,2.292892 -1,3c-0.707092,0.707108 -1.292908,0.292892 -2,1c-0.707092,0.707108 -0.292908,1.292892 -1,2c-0.707092,0.707108 -0.292908,1.292892 -1,2c-0.707092,0.707108 -1.292908,0.292892 -2,1c-0.707092,0.707108 -1.292908,0.292892 -2,1c-0.707092,0.707108 -0.292908,2.707108 -1,2c-0.707092,-0.707108 0.292908,-1.292892 1,-2c0.707092,-0.707108 1.458801,-0.693436 2,-2c0.38269,-0.923874 0.61731,-1.076126 1,-2c0.541199,-1.306564 1.61731,-2.076126 2,-3c0.541199,-1.306564 0.292908,-2.292892 1,-3c0.707092,-0.707108 1,-1 1,-2c0,-1 0.292908,-1.292892 1,-2c0.707092,-0.707108 0,-2 0,-1c0,2 0,3 0,4c0,1 -0.292908,1.292892 -1,2c-0.707092,0.707108 -0.69342,1.458801 -2,2c-0.923889,0.38269 -1.292908,0.292892 -2,1c-0.707092,0.707108 -0.292908,1.292892 -1,2c-0.707092,0.707108 -2,0 -2,1c0,1 -0.076111,1.61731 -1,2c-1.30658,0.541199 -0.707092,0.707108 0,0c0.707092,-0.707108 2,-1 2,-2c0,-1 0.292908,-1.292892 1,-2c0.707092,-0.707108 1,-1 2,-1c1,0 1.458801,-0.693436 2,-2c0.38269,-0.923874 1,-1 1,-2c0,-1 -0.707092,-2.292892 0,-3c0.707092,-0.707108 1,-1 1,-2l0,-1l0,-1l0,-1" id="svg_23" fill-opacity="null" stroke-opacity="null" stroke-width="1.5" stroke="#000" fill="none"/>
  <ellipse ry="2.5" rx="8" id="svg_24" cy="215.5" cx="601" fill-opacity="null" stroke-opacity="null" stroke-width="1.5" stroke="#000" fill="#fff"/>
  <ellipse stroke="#000" id="svg_26" cy="237" cx="619" fill-opacity="null" stroke-opacity="null" stroke-width="1.5" fill="#fff"/>
  <ellipse stroke="#000" id="svg_27" cy="217" cx="599" fill-opacity="null" stroke-opacity="null" stroke-width="1.5" fill="#fff"/>
  <ellipse ry="3.5" rx="8.5" id="svg_28" cy="214.5" cx="646.5" fill-opacity="null" stroke-opacity="null" stroke-width="1.5" stroke="#000" fill="#fff"/>
  <ellipse id="svg_29" cy="242" cx="649" fill-opacity="null" stroke-opacity="null" stroke-width="1.5" stroke="#000" fill="#fff"/>
  <path d="m646,214c0,0 -0.707092,-1.292892 0,-2c0.707092,-0.707108 1,1 1,2c0,1 0.707092,2.292892 0,3c-0.707092,0.707108 -2,0 -2,-1c0,-1 -0.292908,-1.292892 -1,-2c-0.707092,-0.707108 1,-1 1,0c0,1 0,0 0,-1l0,1l0,1" id="svg_30" fill-opacity="null" stroke-opacity="null" stroke-width="1.5" stroke="#000" fill="none"/>
  <polyline stroke="#000" stroke-linecap="round" id="svg_33" points="646,212 646,212 " fill-opacity="null" stroke-opacity="null" stroke-width="1.5" fill="none"/>
  <path d="m600,216c0,0 1,-2 0,-2c-1,0 0,2 1,2c1,0 0.707092,-2.292892 0,-3c-0.707092,-0.707108 0,-2 -1,-2c-1,0 0,2 0,3c0,1 0,2 1,2c1,0 1,-1 1,-2c0,-1 -1,-1 -2,-1c-1,0 -2,0 -2,1c0,1 -0.707092,2.292892 0,3c0.707092,0.707108 1,-1 1,-2c0,-1 0,-2 0,-1c0,1 0,2 1,2c1,0 2,0 2,-1l0,-1l0,-1" id="svg_35" fill-opacity="null" stroke-opacity="null" stroke-width="1.5" stroke="#000" fill="none"/>
  <line stroke-linecap="round" stroke-linejoin="null" id="svg_39" y2="200" x2="592" y1="208" x1="616" fill-opacity="null" stroke-opacity="null" stroke-width="1.5" stroke="#000" fill="none"/>
  <line stroke-linecap="round" stroke-linejoin="null" id="svg_40" y2="196" x2="657" y1="207" x1="634" fill-opacity="null" stroke-opacity="null" stroke-width="1.5" stroke="#000" fill="none"/>
  <ellipse stroke="#000" ry="4" rx="14.5" id="svg_42" cy="258" cx="623.5" fill-opacity="null" stroke-opacity="null" stroke-width="1.5" fill="none"/>
  <line stroke-linecap="null" stroke-linejoin="null" id="svg_43" y2="232" x2="615" y1="209" x1="625" fill-opacity="null" stroke-opacity="null" stroke-width="1.5" stroke="#000" fill="none"/>
  <line stroke-linecap="null" stroke-linejoin="null" id="svg_44" y2="233" x2="635" y1="210" x1="624" fill-opacity="null" stroke-opacity="null" stroke-width="1.5" stroke="#000" fill="none"/>
  <line stroke-linecap="null" stroke-linejoin="null" id="svg_45" y2="238" x2="623" y1="232" x1="616" fill-opacity="null" stroke-opacity="null" stroke-width="1.5" stroke="#000" fill="none"/>
  <line stroke-linecap="null" stroke-linejoin="null" id="svg_46" y2="238" x2="623" y1="233" x1="631" fill-opacity="null" stroke-opacity="null" stroke-width="1.5" stroke="#000" fill="none"/>
  <path transform="rotate(32.09417724609375 635.0000000000001,186.7628936767578) " d="m587,215c0,-3 1.714111,-6.21167 4,-9c0.896606,-1.093674 2.077637,-3.558029 6,-9c1.653809,-2.29454 6,-8 9,-12c3,-4 5.173096,-5.85273 6,-7c1.307434,-1.813995 2.692566,-4.186005 4,-6c1.653809,-2.29454 3.076111,-2.617317 4,-3c1.30658,-0.541199 1,0 1,1c0,1 -0.692566,2.186005 -2,4c-1.653809,2.29454 -3.206787,3.81266 -5,6c-2.285889,2.788322 -7.144287,8.934143 -8,11c-1.210144,2.921562 -2.292908,3.292892 -3,4c-1.414185,1.414215 -0.234619,3.152237 -1,5c-0.541199,1.306564 -1,2 -1,3c0,1 0,2 0,3c0,1 0,2 0,3c0,1 1,1 2,1c1,0 0.692566,-1.186005 2,-3c0.826904,-1.147263 0.337463,-3.310013 2,-6c0.743469,-1.203003 1.458801,-1.693436 2,-3c0.38269,-0.923874 0,-2 0,-3c0,-2 1.569519,-7.133003 3,-11c0.775818,-2.097176 2.692566,-5.186005 4,-7c0.826904,-1.14727 1,-3 2,-4c1,-1 1,-2 1,-1c0,1 0,3 -1,4c-1,1 -2.190308,2.881523 -4,6c-3.367004,5.801994 -7,12 -9,15c-2,3 -3.692566,5.186005 -5,7c-0.826904,1.147263 -1.770264,4.026749 -2,5c-0.513733,2.176254 -1.292908,2.292892 -2,3c-0.707092,0.707108 -1,1 0,0c1,-1 0.692566,-2.186005 2,-4c1.653809,-2.29454 2,-4 3,-6c1,-2 1.458801,-3.693436 2,-5c0.765381,-1.847755 1,-3 2,-5c1,-2 1.714111,-4.211678 4,-7c0.896606,-1.093674 2,-2 3,-3c1,-1 0.69342,-2.458801 2,-3c0.923889,-0.382683 0.923889,0.617317 0,1c-1.30658,0.541199 -3.092712,3.911423 -5,6c-5.266724,5.767265 -8,11 -10,14c-2,3 -2.692566,4.186005 -4,6c-0.826904,1.147263 -1,2 -2,3c-1,1 -0.707092,-0.292892 0,-1c0.707092,-0.707108 1.458801,-0.693436 2,-2c1.148071,-2.771637 1.458801,-3.693436 2,-5c0.765381,-1.847763 0.714111,-4.211678 3,-7c0.896606,-1.093674 2,-3 3,-5c1,-2 2,-3 4,-5c1,-1 1.292908,-2.292892 2,-3c0.707092,-0.707108 0.923889,-2.382683 0,-2c-1.30658,0.541199 -3.292908,0.292892 -4,1c-0.707092,0.707108 -3.186035,1.692551 -5,3c-2.294556,1.653809 -6.222717,3.723991 -10,7c-3.205139,2.779785 -5.418884,4.418861 -7,6c-1.581116,1.581146 -2,3 -3,4c-1,1 -2,1 -2,2c0,1 -0.229767,1.973251 0,1c0.513733,-2.176254 0.606934,-4.818237 4,-9c2.27179,-2.799835 7,-6 10,-8c3,-2 6.852722,-5.173096 8,-6c1.813965,-1.307449 5.458801,-1.693436 6,-3c0.38269,-0.923882 1.292908,-1.292892 2,-2c0.707092,-0.707108 2,0 3,-1c1,-1 12.33783,-12.751671 27,-25c3.83728,-3.205536 5.292908,-3.707108 6,-3c0.707092,0.707108 0,2 -1,3c-1,1 -2,2 -3,3c-1,1 -2,2 -5,5c-3,3 -6.625305,5.41362 -11,9c-2.78833,2.285881 -7.704224,6.400696 -13,10c-6.667969,4.531937 -11.375366,8.940041 -17,12c-2.777832,1.511208 -5.458801,2.693436 -6,4c-0.38269,0.923882 -1.292908,2.292892 -2,3c-0.707092,0.707108 -1.292908,1.292892 -2,2c-0.707092,0.707108 -2,1 -2,2c0,1 1,1 2,0c2,-2 6.746765,-6.371346 11,-9c3.804199,-2.351143 6.69342,-3.458801 8,-4c1.847778,-0.765366 3,-1 4,-1c1,0 2,0 3,0c2,0 3,0 4,0c1,0 1,1 1,2c0,1 -2.403992,2.41156 -7,6c-5.573425,4.351624 -12.705444,10.346191 -15,12c-1.813965,1.307449 -4.458801,1.693436 -5,3c-0.38269,0.923874 -0.826904,1.147263 0,0c1.307434,-1.813995 3,-3 5,-5c4,-4 11.918274,-12.112137 16,-15c2.943359,-2.082466 5.076111,-3.617317 6,-4c1.30658,-0.541199 2.292908,-1.292892 3,-2c0.707092,-0.707108 1.076111,-1.617317 2,-2c1.30658,-0.541199 2.917603,-1.386871 4,-4c0.38269,-0.923882 1.076111,-1.617317 2,-2c1.30658,-0.541199 0,-1 -1,-1c-1,0 -2,0 -3,0c-2,0 -3.152222,-0.765366 -5,0c-1.30658,0.541199 -2.69342,2.458801 -4,3c-0.923889,0.382683 0,0 1,0c1,0 2.711975,1.981628 8,3c3.927795,0.756432 8.025208,0.88134 13,2c4.022644,0.904556 6.309998,0.337494 9,2c1.203003,0.7435 3,2 4,2c1,0 1.081726,-1.112137 -3,-4c-2.943359,-2.082466 -7.041321,-2.847229 -11,-4c-3.036194,-0.884132 -6.132996,-1.569504 -10,-3c-2.097168,-0.775795 -4.152222,-1.234634 -6,-2c-1.30658,-0.541199 -2,-1 -1,-1c1,0 3,0 6,0c4,0 9.902832,0.224205 12,1c3.867004,1.430496 8,3 10,4c2,1 5.025818,1.679634 7,2c3.12146,0.506538 4.076111,1.617317 5,2c1.30658,0.541199 1.923889,1.382683 1,1c-1.30658,-0.541199 -2.746765,-2.371346 -7,-5c-9.510559,-5.877853 -17,-7 -21,-9c-4,-2 -5.69342,-2.458801 -7,-3c-0.923889,-0.382683 -1.992493,-1.122185 -1,-1c8.184448,1.007545 21.143616,3.382492 31,6c9.169006,2.434967 18.711975,5.981628 24,7c0.981934,0.18911 3.474243,1.149345 4,2c1.175598,1.902115 2.418884,2.418861 4,4c1.581116,1.581139 2.292908,2.292892 3,3c0.707092,0.707108 1.292908,0.292892 2,1c0.707092,0.707108 -2.232971,1.410271 -6,-1c-5.393555,-3.450989 -8.177002,-5.345184 -13,-7c-6.345093,-2.177055 -11.051636,-5.359268 -15,-6c-6.242859,-1.013084 -8.82373,-3.486259 -11,-4c-2.919739,-0.689262 -5,0 -8,0c-2,0 -3,0 -5,0c-2,0 -3,0 -5,0c-1,0 -2,1 -5,1c-2,0 -3,0 -4,0c-1,0 0,1 1,1c1,0 5.063354,1.774155 9,3c8.157654,2.540222 11.805664,4.44841 16,6c3.867004,1.430496 7,1 9,2c2,1 3.82373,1.486259 6,2c0.973267,0.229752 2,1 3,1c1,0 1,-1 1,-2c0,-3 -0.418884,-4.418861 -2,-6c-1.581116,-1.581139 -1.705444,-2.346191 -4,-4c-5.441956,-3.922356 -9.647522,-5.972511 -14,-7c-1.946472,-0.459503 -3.82373,-1.486259 -6,-2c-1.946472,-0.459503 -3,-1 -5,-1c-1,0 -2,0 -3,0c-1,0 -2,0 -2,1c0,1 2,2 6,3c8,2 21,5 26,7c5,2 6.796997,3.2565 8,4c2.690002,1.662506 4,2 6,3c2,1 3,2 4,2c1,0 3,1 3,0c0,-1 -3.558167,-2.519287 -7,-5c-3.627991,-2.614906 -7.075073,-4.623322 -13,-6c-10.169373,-2.3629 -17.925781,-5.497551 -23,-6c-5.970825,-0.591225 -9,0 -10,0c-2,0 -5,-1 -5,0c0,1 2,0 3,0c1,0 5,0 9,0c3,0 9.022461,0.633453 12,1c4.092224,0.503777 9.053528,2.540497 11,3c2.17627,0.513741 4.796997,2.2565 6,3c2.690002,1.662506 4,1 6,2c2,1 2.69342,1.458801 4,2c0.923889,0.382683 2,1 3,1c2,0 3.61731,0.923882 4,0c0.541199,-1.306564 -2.863281,-4.146812 -5,-6c-3.777283,-3.276009 -6.638733,-4.442978 -9,-6c-4.495728,-2.964485 -9.071777,-4.691246 -14,-6c-6.112671,-1.623314 -9,-3 -12,-3c-2,0 -3,0 -5,0c-1,0 -2,0 -4,0c-1,0 -2.292908,-0.707108 -3,0c-0.707092,0.707108 -1.292908,0.292892 -2,1c-0.707092,0.707108 -0.707092,2.292892 0,3c0.707092,0.707108 1,1 3,2c2,1 5.168213,2.584808 13,6c4.099304,1.78759 7.309998,2.337494 10,4c2.406006,1.486992 4.025818,1.679634 6,2c3.12146,0.506538 5.796997,1.2565 7,2c2.690002,1.662506 4.152222,1.234634 6,2c1.30658,0.541199 2.076111,0.617317 3,1c1.30658,0.541199 2.61731,1.923882 3,1c0.541199,-1.306564 -4.93811,-4.078583 -10,-8c-3.952637,-3.062111 -12.190735,-7.422157 -16,-9c-5.387085,-2.231407 -5.87854,-3.493462 -9,-4c-1.974182,-0.320366 -4,0 -6,0c-1,0 -1.923889,-0.382683 -1,0c1.30658,0.541199 2.132996,1.569504 6,3c6.291504,2.327385 11.07843,3.789848 14,5c4.131714,1.711411 5.868286,3.288589 10,5c2.92157,1.210152 5.82373,2.486259 8,3c0.973267,0.229752 2.61731,1.923882 3,1c0.541199,-1.306564 -4,-3 -7,-6c-2,-2 -3.611023,-2.92807 -6,-5c-1.68927,-1.465073 -4,-3 -6,-4c-2,-1 -5.053528,-1.540497 -7,-2c-2.17627,-0.513741 -5,-2 -6,-2c-1,0 -2,0 -3,0c-2,0 -4,0 -5,0c-2,0 -3,0 -4,0c-2,0 -3.30658,0.458801 -2,1c0.923889,0.382683 2.893982,1.288742 8,3c10.810791,3.623161 28.118103,6.375404 35,8c6.155396,1.453087 11.07843,3.789848 14,5c2.065857,0.855705 2.69342,1.458801 4,2c1.847778,0.765366 2.292908,1.292892 3,2c0.707092,0.707108 2,2 2,1c0,-1 -2.234009,0.507057 -7,-2c-6.381958,-3.357117 -9.618042,-7.642883 -16,-11c-4.765991,-2.507057 -9.635681,-3.480377 -19,-5c-4.935425,-0.800911 -9,-1 -10,-1c-2,0 -4,0 -5,0c-1,0 -2,0 -3,0c-1,0 -2,0 -3,0c-1,0 -3.076111,0.617317 -4,1c-1.30658,0.541199 -2.173096,0.85273 -3,2c-1.307434,1.813995 -5.170471,5.838692 -8,9c-4.270386,4.771149 -8.714111,10.211678 -11,13c-1.793213,2.18734 -2.692566,3.186005 -4,5c-1.653809,2.29454 -3.234619,3.152245 -4,5c-0.541199,1.306564 -2.186035,1.692551 -4,3c-1.147278,0.826904 -2.824402,2.097885 -4,4c-0.525757,0.850647 -1.486267,0.823746 -2,3c-0.229736,0.973251 -0.69342,1.458801 -2,2c-0.923889,0.38269 -1.61731,0.076126 -2,1c-0.541199,1.306564 -1.692566,2.186005 -3,4c-0.826904,1.147263 -3,4 -4,5c-1,1 -1.61731,3.076126 -2,4c-0.541199,1.306564 -2,2 -2,1c0,-1 0,-2 0,-3c0,-1 0.173096,-1.852737 1,-3c1.307465,-1.813995 1.61731,-3.076126 2,-4c0.541199,-1.306564 2,-2 4,-4c1,-1 2,-2 4,-4c1,-1 3,-2 5,-4c1,-1 2.418884,-1.418854 4,-3c1.581116,-1.581139 4,-4 7,-7c4,-4 11.222717,-10.723991 15,-14c4.273499,-3.706383 7.186035,-7.692551 9,-9c1.147278,-0.826904 1.69342,-3.458801 3,-4c0.923889,-0.382683 1.292908,-2.292892 2,-3c0.707092,-0.707108 1.707092,-1.292892 1,-2c-0.707092,-0.707108 -2.173096,-0.14727 -3,1c-1.307434,1.813995 -3,3 -5,5c-2,2 -4.418884,4.418861 -6,6c-1.581116,1.581139 -5,4 -6,5c-2,2 -5,4 -6,5c-2,2 -3.852722,2.173096 -5,3c-1.813965,1.307449 -2.852722,1.173096 -4,2c-1.813965,1.307449 -3,2 -4,3c-2,2 -3,3 -4,4c-1,1 -1,2 -2,3c-1,1 -1,2 -1,4c0,1 0,2 0,4c0,2 0,6 0,10c0,2 1,6 1,7c0,2 0.707092,4.292892 0,5c-0.707092,0.707108 -1.824402,-2.097885 -3,-4c-1.051453,-1.701309 -1,-5 -1,-6c0,-1 0,-2 0,-4c0,-1 3.346191,-6.70546 5,-9c1.307434,-1.813995 2.852722,-2.173096 4,-3c1.813965,-1.307449 3,-2 5,-3c2,-1 3.906311,-3.103401 5,-4c2.78833,-2.285881 6.195557,-4.811798 11,-10c6.264221,-6.764587 11.222717,-10.723991 15,-14c1.068359,-0.926598 2.458801,-1.693436 3,-3c0.38269,-0.923882 0,-2 -1,-2c-3,0 -5.07843,1.789848 -8,3c-2.065857,0.855705 -4.222717,3.723991 -8,7c-3.205139,2.779785 -6.112122,7.918304 -9,12c-4.164917,5.886711 -6.415894,8.761078 -8,12c-1.389343,2.840729 -2.486267,3.823746 -3,6c-0.459534,1.946503 -0.770264,3.026749 -1,4c-0.513733,2.176254 -1.770264,4.026749 -2,5c-0.513733,2.176254 -1.486267,2.823746 -2,5c-0.229736,0.973251 -0.692566,2.186005 -2,4c-0.826904,1.147263 -1,2 -1,3c0,1 0,2 0,3c0,1 1.173096,1.147263 2,0c1.307434,-1.813995 2.188782,-2.415283 3,-3c2.565369,-1.849014 2.346191,-4.70546 4,-7c1.307434,-1.813995 2.714111,-4.21167 5,-7c0.896606,-1.093674 1.692566,-2.186005 3,-4c0.826904,-1.147263 1.458801,-1.693436 2,-3c0.765381,-1.847763 0.61731,-3.076126 1,-4c0.541199,-1.306564 1.418884,-3.418861 3,-5c1.581116,-1.581139 2.292908,-3.292892 3,-4c1.414185,-1.414215 1,-3 2,-4c1,-1 1.103394,-1.906326 2,-3c2.285889,-2.788322 3,-4 5,-6c1,-1 2.076111,-2.617317 3,-3c1.30658,-0.541199 1.292908,-1.292892 2,-2c0.707092,-0.707108 1.076111,-0.617317 2,-1c1.30658,-0.541199 2,-1 3,-1c3,0 5,0 9,0c4,0 8.907776,1.496223 13,2c1.984985,0.24437 6.87854,1.493462 10,2c3.948364,0.640732 12.177002,0.345184 17,2c2.115051,0.725685 5,1 6,1c2,0 3.61731,0.923882 4,0c0.541199,-1.306564 -2.07843,-0.789848 -5,-2c-4.131714,-1.711411 -7,-3 -11,-3c-10,0 -16,0 -22,0c-5,0 -8,0 -10,0c-1,0 -2,0 -3,0l-1,0l1,0" id="svg_47" stroke-opacity="null" stroke-width="null" stroke="#000000" fill="#A0D58A"/>
  <path stroke="#000000" id="svg_48" d="m615.059634,231.120017c1.999184,-3.78997 5.603607,-7.024712 8.669978,-10.234974c3.567069,2.060143 6.648817,6.59242 9.329958,9.749054c-2.391398,3.651207 -5.833768,6.976458 -8.934891,10.250946c-3.343066,-2.995849 -6.201932,-6.418666 -9.065045,-9.765026l-0.000001,0z" stroke-opacity="null" stroke-width="null" fill="#7AD6CA"/>
  <path id="svg_50" d="m611.104645,309.47976c2.998787,-7.011445 8.405441,-12.995718 13.005014,-18.934701c5.350623,3.811264 9.973261,12.195978 13.994987,18.035751c-3.58711,6.754733 -8.750684,12.906448 -13.402384,18.96425c-5.014617,-5.542321 -9.302931,-11.874533 -13.597616,-18.065299l-0.000001,0z" stroke-opacity="null" stroke-width="null" stroke="#000000" fill="#666666"/>
  <path id="svg_51" d="m34.928829,12.267711c0.222132,-4.168967 0.622625,-7.727183 0.963334,-11.258471c0.396342,2.266157 0.73876,7.251662 1.036666,10.72396c-0.265712,4.016328 -0.648199,7.674104 -0.992769,11.27604c-0.371453,-3.295434 -0.689106,-7.060533 -1.007231,-10.741529l0,0z" stroke-opacity="null" stroke-width="null" stroke="#000000" fill="#666666"/>
  <path id="svg_52" d="m610.059661,385.196215c3.220919,-21.792332 9.028066,-40.392101 13.968348,-58.851107c5.746965,11.845823 10.71202,37.906424 15.031652,56.057071c-3.852822,20.994443 -9.398883,40.114642 -14.395153,58.942946c-5.38607,-17.226134 -9.992036,-36.907336 -14.604846,-56.14891l-0.000001,0z" stroke-opacity="null" stroke-width="null" stroke="#000000" fill="#666666"/>
  <rect id="svg_53" height="46" width="248" y="333" x="274" stroke-opacity="null" stroke-width="null" stroke="#000000" fill="#9A8AAB"/>
  <rect id="svg_54" height="41" width="244" y="335" x="737" stroke-opacity="null" stroke-width="null" stroke="#000000" fill="#9A8AAB"/>
  <path transform="rotate(-89.95307159423828 243.77337646484372,356.37994384765625) " id="svg_55" d="m238.948006,389.208387c-10.299153,-1.129972 -19.117548,-6.186842 -21.79033,-12.591628c-1.271181,-3.269278 -0.52687,-6.699007 -0.777399,-10.039232c-0.047256,-8.574846 -0.071395,-17.149741 -0.106909,-25.724612c1.209307,-2.661718 6.313529,-4.061638 10.196327,-2.745677c0.337771,-0.699205 0.090195,-1.953161 0.208594,-2.861486c-0.688562,-2.496594 2.12713,-5.036244 6.216731,-5.205196c2.34693,-0.009651 5.15677,1.118305 4.087186,-1.379448c-0.725199,-2.572531 2.467562,-5.502698 6.834309,-5.265562c4.172933,-0.244904 7.341804,2.440665 6.838314,4.930021c0.194113,1.486094 5.282566,-0.973736 7.061354,0.678378c2.26872,0.851523 3.820611,2.476281 3.392182,4.156087c0.131515,4.601643 -0.17716,9.232456 0.330893,13.811939c3.731283,-1.194522 9.047884,0.273198 9.812114,2.901107c-0.084525,8.164556 0.215454,16.334876 -0.227011,24.494734c-1.501966,8.393253 -14.124306,15.490901 -27.599474,14.986819c-1.493245,0.002513 -2.99955,0.011796 -4.476886,-0.146248l0.000004,0.000002zm9.214305,-2.229412c11.311317,-1.208926 20.209849,-8.124917 19.572587,-15.397369c0.086495,-7.029002 0.438245,-14.068351 0.026386,-21.092606c-0.263177,-2.568206 -6.995169,-1.946463 -6.559922,0.423283c-0.00205,5.209552 -0.004114,10.419101 -0.006186,15.628652c-2.096001,1.366957 -5.847596,0.543643 -8.360958,1.654618c-5.587449,1.541703 -9.137798,5.31692 -9.259581,9.118035c-3.013586,2.955169 -4.377932,-1.854181 -2.649334,-3.43859c1.998466,-4.779204 9.03078,-8.34509 16.755091,-8.813359c-0.063195,-10.994884 0.163623,-21.993728 -0.202952,-32.985428c-2.187003,-3.11359 -8.31532,-0.38268 -6.684275,2.343792c-0.160692,8.312607 -0.016714,16.627154 -0.241618,24.93917c-1.46079,1.47792 -4.228797,0.076308 -3.325922,-1.287592c-0.062405,-10.412738 -0.124824,-20.825476 -0.187232,-31.238214c-1.172069,-1.838962 -6.364721,-1.55165 -6.446445,0.466676c-0.064195,10.745721 -0.12839,21.49144 -0.192593,32.237161c-1.366375,1.217294 -4.172947,0.15895 -3.417153,-1.169809c-0.050472,-8.094363 0.14047,-16.192224 -0.193203,-24.28369c-0.085364,-2.408335 -6.461762,-2.34869 -6.546859,-0.115203c-0.12753,8.297081 0.034172,16.598603 -0.34983,24.892078c0.361531,2.11246 -4.343401,1.104798 -3.259343,-0.493185c-0.057486,-5.638114 0.156668,-11.28242 -0.206947,-16.91541c-2.144567,-3.475702 -8.557851,-0.606273 -6.76945,2.282595c0.02151,9.997803 -0.144104,20.000586 0.255692,29.995287c0.98079,7.679093 12.670692,14.002107 24.831579,13.497477c1.146993,-0.030226 2.29057,-0.113063 3.418473,-0.248368l-0.000004,-0.000002z" stroke-opacity="null" stroke-width="null" stroke="#000000" fill="#B8874D"/>
  <path transform="rotate(91.27880096435547 1010.4282226562499,353.86499023437494) " id="svg_56" d="m1005.339721,381.222049c-10.860923,-0.941644 -20.160319,-5.155703 -22.978888,-10.493027c-1.340518,-2.7244 -0.555608,-5.582508 -0.819802,-8.366029c-0.049834,-7.145708 -0.07529,-14.291456 -0.11274,-21.437184c1.275268,-2.218099 6.657902,-3.3847 10.752488,-2.288065c0.356195,-0.582671 0.095115,-1.627635 0.219972,-2.384572c-0.72612,-2.080496 2.243155,-4.196871 6.555824,-4.337665c2.474944,-0.008043 5.438047,0.931921 4.310122,-1.14954c-0.764755,-2.143777 2.602155,-4.585583 7.207088,-4.38797c4.400546,-0.204087 7.742264,2.033888 7.211312,4.108353c0.204701,1.238412 5.570705,-0.811447 7.446518,0.565315c2.392468,0.709603 4.029007,2.063569 3.577209,3.463407c0.138688,3.834704 -0.186823,7.693716 0.348942,11.509953c3.934806,-0.995435 9.541403,0.227665 10.347318,2.41759c-0.089136,6.803799 0.227206,13.612401 -0.239393,20.412285c-1.583891,6.99438 -14.89472,12.909089 -29.104894,12.48902c-1.574695,0.002094 -3.163162,0.00983 -4.721078,-0.121873l0.000004,0.000002zm9.716901,-1.857844c11.928296,-1.007439 21.3122,-6.770766 20.640178,-12.831145c0.091213,-5.857504 0.462149,-11.72363 0.027825,-17.577178c-0.277532,-2.140172 -7.376722,-1.622053 -6.917735,0.352736c-0.002162,4.341295 -0.004339,8.682587 -0.006523,13.023882c-2.210328,1.139131 -6.166555,0.453036 -8.817008,1.378848c-5.892218,1.284753 -9.636221,4.430768 -9.764647,7.598365c-3.177963,2.462642 -4.616727,-1.545151 -2.793843,-2.865492c2.107472,-3.982672 9.523366,-6.954244 17.669001,-7.344468c-0.066642,-9.162406 0.172548,-18.328113 -0.214022,-27.487867c-2.306294,-2.594659 -8.768881,-0.3189 -7.048871,1.953161c-0.169457,6.927175 -0.017626,13.855967 -0.254798,20.782649c-1.540469,1.2316 -4.459458,0.06359 -3.507335,-1.072994c-0.065809,-8.677285 -0.131632,-17.354569 -0.197444,-26.031854c-1.236,-1.532469 -6.711886,-1.293042 -6.798068,0.388897c-0.067697,8.954771 -0.135393,17.90954 -0.203098,26.864311c-1.440904,1.014412 -4.400561,0.132458 -3.603542,-0.974841c-0.053225,-6.745305 0.148132,-13.493525 -0.203742,-20.236415c-0.09002,-2.006946 -6.81422,-1.957242 -6.903959,-0.096003c-0.134486,6.914237 0.036036,13.832174 -0.368911,20.743406c0.38125,1.760384 -4.580313,0.920665 -3.437125,-0.410988c-0.060622,-4.69843 0.165214,-9.40202 -0.218235,-14.09618c-2.261543,-2.89642 -9.024641,-0.505227 -7.138691,1.902163c0.022683,8.331505 -0.151964,16.667161 0.269639,24.996082c1.034287,6.399246 13.361818,11.668427 26.186023,11.247901c1.209556,-0.025188 2.41551,-0.094219 3.604934,-0.206973l-0.000004,-0.000002z" stroke-opacity="null" stroke-width="null" stroke="#000000" fill="#B8874D"/>
  <ellipse stroke="#000000" ry="3" rx="5.5" id="svg_57" cy="233" cx="590.5" stroke-opacity="null" stroke-width="null" fill="#845335"/>
  <ellipse stroke="#000000" ry="2.5" rx="6" id="svg_58" cy="232.5" cx="654" stroke-opacity="null" stroke-width="null" fill="#845335"/>
  <ellipse id="svg_59" cy="327" cx="640" stroke-opacity="null" stroke-width="null" stroke="#000000" fill="#845335"/>
  <ellipse id="svg_60" cy="234" cx="653" stroke-opacity="null" stroke-width="null" stroke="#000000" fill="#845335"/>
 </g>
</svg>
